<svg id="visual" viewBox="0 0 1920 1080" width="1920" height="1080" xmlns="http://www.w3.org/2000/svg" xmlns:xlink="http://www.w3.org/1999/xlink" version="1.1"><rect width="1920" height="1080" fill="#001829"></rect><g><g transform="translate(235 361)"><path d="M0 -230.9L200 -115.5L200 115.5L0 230.9L-200 115.5L-200 -115.5Z" stroke="#22e83a" fill="none" stroke-width="2"></path></g><g transform="translate(1492 400)"><path d="M0 -170L147.2 -85L147.2 85L0 170L-147.2 85L-147.2 -85Z" stroke="#22e83a" fill="none" stroke-width="2"></path></g><g transform="translate(1358 1029)"><path d="M0 -144L124.7 -72L124.7 72L0 144L-124.7 72L-124.7 -72Z" stroke="#22e83a" fill="none" stroke-width="2"></path></g><g transform="translate(508 1047)"><path d="M0 -203L175.8 -101.5L175.8 101.5L0 203L-175.8 101.5L-175.8 -101.5Z" stroke="#22e83a" fill="none" stroke-width="2"></path></g><g transform="translate(776 626)"><path d="M0 -205L177.5 -102.5L177.5 102.5L0 205L-177.5 102.5L-177.5 -102.5Z" stroke="#22e83a" fill="none" stroke-width="2"></path></g><g transform="translate(1853 884)"><path d="M0 -151L130.8 -75.5L130.8 75.5L0 151L-130.8 75.5L-130.8 -75.5Z" stroke="#22e83a" fill="none" stroke-width="2"></path></g><g transform="translate(774 71)"><path d="M0 -158L136.8 -79L136.8 79L0 158L-136.8 79L-136.8 -79Z" stroke="#22e83a" fill="none" stroke-width="2"></path></g><g transform="translate(30 971)"><path d="M0 -159L137.7 -79.5L137.7 79.5L0 159L-137.7 79.5L-137.7 -79.5Z" stroke="#22e83a" fill="none" stroke-width="2"></path></g></g></svg>